<mxfile host="app.diagrams.net" modified="2020-04-22T04:50:49.059Z" agent="5.0 (Macintosh; Intel Mac OS X 10_15_3) AppleWebKit/537.36 (KHTML, like Gecko) Chrome/81.0.4044.113 Safari/537.36" etag="5g-ZQvxaAJBshhjhFfKI" version="12.9.14" type="github">
  <diagram id="6c2DisM52dtsQ0KQH6_5" name="第 1 页">
    <mxGraphModel dx="1186" dy="773" grid="1" gridSize="20" guides="1" tooltips="1" connect="1" arrows="1" fold="1" page="1" pageScale="1" pageWidth="4681" pageHeight="3300" background="none" math="0" shadow="0">
      <root>
        <mxCell id="0" />
        <mxCell id="1" parent="0" />
      </root>
    </mxGraphModel>
  </diagram>
</mxfile>
